<mxfile host="65bd71144e" pages="2">
    <diagram id="UVffLJullfQKcoPCxTh8" name="Page-2">
        <mxGraphModel dx="686" dy="331" grid="1" gridSize="10" guides="1" tooltips="1" connect="1" arrows="1" fold="1" page="1" pageScale="1" pageWidth="827" pageHeight="1169" math="0" shadow="0">
            <root>
                <mxCell id="IK1rt0zgLfbGXc7qfQTl-0"/>
                <mxCell id="IK1rt0zgLfbGXc7qfQTl-1" parent="IK1rt0zgLfbGXc7qfQTl-0"/>
                <mxCell id="IK1rt0zgLfbGXc7qfQTl-2" value="Start" style="ellipse;whiteSpace=wrap;html=1;" parent="IK1rt0zgLfbGXc7qfQTl-1" vertex="1">
                    <mxGeometry x="160" y="60" width="120" height="40" as="geometry"/>
                </mxCell>
                <mxCell id="IK1rt0zgLfbGXc7qfQTl-3" value="Random array&lt;br&gt;size = 10" style="rounded=0;whiteSpace=wrap;html=1;" parent="IK1rt0zgLfbGXc7qfQTl-1" vertex="1">
                    <mxGeometry x="160" y="120" width="120" height="60" as="geometry"/>
                </mxCell>
                <mxCell id="IK1rt0zgLfbGXc7qfQTl-4" value="counter&amp;lt;=size?" style="rhombus;whiteSpace=wrap;html=1;" parent="IK1rt0zgLfbGXc7qfQTl-1" vertex="1">
                    <mxGeometry x="160" y="210" width="120" height="80" as="geometry"/>
                </mxCell>
                <mxCell id="IK1rt0zgLfbGXc7qfQTl-6" value="print arrray2" style="rounded=0;whiteSpace=wrap;html=1;" parent="IK1rt0zgLfbGXc7qfQTl-1" vertex="1">
                    <mxGeometry x="340" y="220" width="120" height="60" as="geometry"/>
                </mxCell>
                <mxCell id="IK1rt0zgLfbGXc7qfQTl-8" value="&lt;font color=&quot;#000000&quot; face=&quot;helvetica&quot;&gt;&lt;span style=&quot;font-weight: 400 ; background-color: rgb(248 , 249 , 250)&quot;&gt;array[i]%2 == 0&lt;/span&gt;&lt;/font&gt;" style="rhombus;whiteSpace=wrap;html=1;fontStyle=1" parent="IK1rt0zgLfbGXc7qfQTl-1" vertex="1">
                    <mxGeometry x="160" y="330" width="120" height="80" as="geometry"/>
                </mxCell>
                <mxCell id="IK1rt0zgLfbGXc7qfQTl-9" value="counter=counter+1" style="rounded=0;whiteSpace=wrap;html=1;" parent="IK1rt0zgLfbGXc7qfQTl-1" vertex="1">
                    <mxGeometry x="10" y="340" width="120" height="60" as="geometry"/>
                </mxCell>
                <mxCell id="IK1rt0zgLfbGXc7qfQTl-10" value="return array2" style="rounded=0;whiteSpace=wrap;html=1;" parent="IK1rt0zgLfbGXc7qfQTl-1" vertex="1">
                    <mxGeometry x="160" y="460" width="120" height="60" as="geometry"/>
                </mxCell>
                <mxCell id="IK1rt0zgLfbGXc7qfQTl-11" value="" style="endArrow=classic;html=1;rounded=0;exitX=0.5;exitY=1;exitDx=0;exitDy=0;" parent="IK1rt0zgLfbGXc7qfQTl-1" source="IK1rt0zgLfbGXc7qfQTl-3" target="IK1rt0zgLfbGXc7qfQTl-4" edge="1">
                    <mxGeometry width="50" height="50" relative="1" as="geometry">
                        <mxPoint x="410" y="450" as="sourcePoint"/>
                        <mxPoint x="460" y="400" as="targetPoint"/>
                    </mxGeometry>
                </mxCell>
                <mxCell id="IK1rt0zgLfbGXc7qfQTl-12" value="Yes" style="endArrow=classic;html=1;rounded=0;exitX=0.5;exitY=1;exitDx=0;exitDy=0;entryX=0.5;entryY=0;entryDx=0;entryDy=0;" parent="IK1rt0zgLfbGXc7qfQTl-1" source="IK1rt0zgLfbGXc7qfQTl-4" target="IK1rt0zgLfbGXc7qfQTl-8" edge="1">
                    <mxGeometry width="50" height="50" relative="1" as="geometry">
                        <mxPoint x="230" y="190" as="sourcePoint"/>
                        <mxPoint x="230" y="220" as="targetPoint"/>
                    </mxGeometry>
                </mxCell>
                <mxCell id="IK1rt0zgLfbGXc7qfQTl-13" value="Yes" style="endArrow=classic;html=1;rounded=0;entryX=0.5;entryY=0;entryDx=0;entryDy=0;exitX=0.5;exitY=1;exitDx=0;exitDy=0;" parent="IK1rt0zgLfbGXc7qfQTl-1" source="IK1rt0zgLfbGXc7qfQTl-8" edge="1">
                    <mxGeometry width="50" height="50" relative="1" as="geometry">
                        <mxPoint x="230" y="430" as="sourcePoint"/>
                        <mxPoint x="220" y="460" as="targetPoint"/>
                    </mxGeometry>
                </mxCell>
                <mxCell id="IK1rt0zgLfbGXc7qfQTl-15" value="" style="endArrow=classic;html=1;rounded=0;exitX=0;exitY=0.5;exitDx=0;exitDy=0;entryX=0.5;entryY=1;entryDx=0;entryDy=0;" parent="IK1rt0zgLfbGXc7qfQTl-1" source="IK1rt0zgLfbGXc7qfQTl-10" target="IK1rt0zgLfbGXc7qfQTl-9" edge="1">
                    <mxGeometry width="50" height="50" relative="1" as="geometry">
                        <mxPoint x="410" y="450" as="sourcePoint"/>
                        <mxPoint x="460" y="400" as="targetPoint"/>
                        <Array as="points">
                            <mxPoint x="70" y="490"/>
                        </Array>
                    </mxGeometry>
                </mxCell>
                <mxCell id="IK1rt0zgLfbGXc7qfQTl-16" value="" style="endArrow=classic;html=1;rounded=0;exitX=0.5;exitY=0;exitDx=0;exitDy=0;entryX=0;entryY=0.5;entryDx=0;entryDy=0;" parent="IK1rt0zgLfbGXc7qfQTl-1" source="IK1rt0zgLfbGXc7qfQTl-9" target="IK1rt0zgLfbGXc7qfQTl-4" edge="1">
                    <mxGeometry width="50" height="50" relative="1" as="geometry">
                        <mxPoint x="410" y="450" as="sourcePoint"/>
                        <mxPoint x="460" y="400" as="targetPoint"/>
                        <Array as="points">
                            <mxPoint x="70" y="250"/>
                        </Array>
                    </mxGeometry>
                </mxCell>
                <mxCell id="IK1rt0zgLfbGXc7qfQTl-17" value="No" style="endArrow=classic;html=1;rounded=0;exitX=0;exitY=0.5;exitDx=0;exitDy=0;entryX=1;entryY=0.5;entryDx=0;entryDy=0;" parent="IK1rt0zgLfbGXc7qfQTl-1" source="IK1rt0zgLfbGXc7qfQTl-8" target="IK1rt0zgLfbGXc7qfQTl-9" edge="1">
                    <mxGeometry width="50" height="50" relative="1" as="geometry">
                        <mxPoint x="410" y="450" as="sourcePoint"/>
                        <mxPoint x="460" y="400" as="targetPoint"/>
                    </mxGeometry>
                </mxCell>
                <mxCell id="IK1rt0zgLfbGXc7qfQTl-18" value="No" style="endArrow=classic;html=1;rounded=0;exitX=1;exitY=0.5;exitDx=0;exitDy=0;entryX=0;entryY=0.5;entryDx=0;entryDy=0;" parent="IK1rt0zgLfbGXc7qfQTl-1" source="IK1rt0zgLfbGXc7qfQTl-4" target="IK1rt0zgLfbGXc7qfQTl-6" edge="1">
                    <mxGeometry width="50" height="50" relative="1" as="geometry">
                        <mxPoint x="410" y="450" as="sourcePoint"/>
                        <mxPoint x="460" y="400" as="targetPoint"/>
                    </mxGeometry>
                </mxCell>
            </root>
        </mxGraphModel>
    </diagram>
</mxfile>